<svg width="97" height="32" viewBox="0 0 97 32" fill="none" xmlns="http://www.w3.org/2000/svg">
<rect width="32" height="32" rx="8" fill="#4D7CFE"/>
<path fill-rule="evenodd" clip-rule="evenodd" d="M9.4774 6.66742C9.84272 6.28597 10.2875 6.09525 10.8116 6.09525C11.3358 6.09525 11.7845 6.28199 12.1577 6.6555C12.531 7.029 12.7176 7.478 12.7176 8.00249C12.7176 8.52699 12.531 8.97201 12.1577 9.33756C11.7845 9.70312 11.3358 9.8859 10.8116 9.8859C10.2875 9.8859 9.84272 9.70312 9.4774 9.33756C9.11208 8.97201 8.92943 8.52699 8.92943 8.00249C8.92943 7.478 9.11208 7.03298 9.4774 6.66742ZM8.50058 13.6527C8.65941 13.3666 8.96119 13.1481 9.40593 12.9971C9.85066 12.8461 10.2914 12.7706 10.7282 12.7706C11.165 12.7706 11.5502 12.8262 11.8837 12.9375C11.2643 17.7215 10.9546 20.1373 10.9546 20.185C10.8751 20.5029 10.8354 20.7691 10.8354 20.9837C10.8354 21.1982 10.8513 21.385 10.8831 21.5439C10.9466 21.9572 11.2365 22.1638 11.7527 22.1638C12.2689 22.1638 12.7454 21.826 13.1822 21.1506C13.619 20.4751 13.9486 19.7082 14.1709 18.8499C14.1915 18.8617 14.2142 18.8778 14.2391 18.8982C14.3169 17.085 14.9256 15.6306 16.065 14.5348C17.3039 13.3428 18.8764 12.7468 20.7824 12.7468C22.2437 12.7468 23.4627 13.2156 24.4395 14.1534C25.4164 15.0911 25.9048 16.2354 25.9048 17.5864C25.9048 19.6367 25.3052 21.2777 24.106 22.5095C22.9068 23.7412 21.4574 24.3571 19.7579 24.3571C18.0584 24.3571 16.7123 23.8724 15.7196 22.9028C15.2717 22.4654 14.9248 21.9811 14.679 21.4498C14.3753 22.135 13.9836 22.7227 13.5038 23.2128C12.7414 23.9916 11.8281 24.381 10.764 24.381C9.69976 24.381 8.90957 24.1187 8.39336 23.5942C7.87715 23.0697 7.61905 22.3943 7.61905 21.5678C7.61905 21.3929 7.62699 21.2102 7.64287 21.0194L8.50058 13.6527ZM18.4237 15.9652C18.932 15.107 19.5594 14.6778 20.3059 14.6778C21.0683 14.6778 21.6321 15.0116 21.9975 15.6792C22.3628 16.3149 22.5454 17.1732 22.5454 18.2539C22.5454 19.3347 22.2873 20.2963 21.7711 21.1386C21.2549 21.981 20.6156 22.4022 19.8532 22.4022C19.0908 22.4022 18.523 22.1002 18.1497 21.4963C17.7765 20.8923 17.5898 20.1294 17.5898 19.2076C17.6375 17.9043 17.9154 16.8235 18.4237 15.9652Z" fill="white"/>
<path fill-rule="evenodd" clip-rule="evenodd" d="M41.375 8.54938V10.8544H43.7859V8.54938H41.375ZM41.4172 12.66V23H43.7531V12.66H41.4172Z" fill="#252631"/>
<path fill-rule="evenodd" clip-rule="evenodd" d="M48.3033 22.5669C49.0351 22.989 49.8936 23.2 50.8791 23.2C51.9211 23.2 52.8035 22.974 53.5261 22.5221C54.2487 22.0701 54.7992 21.445 55.1777 20.6467C55.5561 19.8485 55.7453 18.9267 55.7453 17.8813C55.7453 16.7502 55.5461 15.7802 55.1478 14.9711C54.7495 14.1621 54.1876 13.5413 53.462 13.1088C52.7365 12.6763 51.8791 12.46 50.8897 12.46C49.8693 12.46 48.9938 12.6859 48.2631 13.1377C47.5325 13.5894 46.9719 14.2221 46.5813 15.0356C46.1906 15.8492 45.9953 16.7977 45.9953 17.8813C45.9953 18.9959 46.197 19.9499 46.6005 20.7435C47.0039 21.537 47.5715 22.1448 48.3033 22.5669ZM52.277 20.8949C51.9123 21.2016 51.4499 21.355 50.8897 21.355C50.2791 21.355 49.7906 21.1899 49.4244 20.8597C49.0581 20.5295 48.7938 20.0947 48.6314 19.5552C48.469 19.0157 48.3878 18.4329 48.3878 17.8069C48.3878 17.1148 48.4784 16.5042 48.6595 15.9752C48.8407 15.4461 49.1159 15.0335 49.4853 14.7374C49.8547 14.4412 50.3228 14.2931 50.8897 14.2931C51.4936 14.2931 51.9764 14.4537 52.338 14.7749C52.6995 15.096 52.9598 15.5235 53.1189 16.0572C53.278 16.591 53.3575 17.1742 53.3575 17.8069C53.3575 18.4892 53.2686 19.0977 53.0908 19.6325C52.913 20.1673 52.6417 20.5881 52.277 20.8949Z" fill="#252631"/>
<path d="M61.7225 23.085C60.9015 23.085 60.2662 22.9766 59.8169 22.7597C59.3675 22.5428 59.0553 22.2343 58.8802 21.8341C58.7051 21.4339 58.6175 20.9571 58.6175 20.4038V14.3813H56.9375V12.66H58.6919L59.2981 9.59003H61.0491V12.6494H63.3606V14.3813H61.0491L61.0597 20.3082C61.0597 20.6146 61.0943 20.8399 61.1634 20.9839C61.2326 21.128 61.3459 21.2213 61.5033 21.2638C61.6607 21.3063 61.871 21.3275 62.1344 21.3275H63.4075V22.8682C63.2737 22.9223 63.0715 22.972 62.8008 23.0172C62.5301 23.0624 62.1706 23.085 61.7225 23.085Z" fill="#252631"/>
<path fill-rule="evenodd" clip-rule="evenodd" d="M66.8197 22.8364C67.3411 23.0788 67.933 23.2 68.5953 23.2C69.327 23.2 69.9773 23.0512 70.5462 22.7535C71.1152 22.4558 71.5858 21.9194 71.9581 21.1444L72.1528 23H74.2009V15.755C74.2009 15.0592 74.0547 14.4657 73.7622 13.9746C73.4697 13.4834 73.0131 13.1082 72.3925 12.8489C71.7719 12.5897 70.9694 12.46 69.985 12.46C69.1358 12.46 68.3883 12.5789 67.7425 12.8167C67.0967 13.0546 66.5887 13.4111 66.2186 13.8863C65.8485 14.3615 65.6434 14.9542 65.6034 15.6644H67.6706C67.8087 15.1236 68.0847 14.7377 68.4984 14.5067C68.9122 14.2758 69.3696 14.1586 69.8706 14.155C70.5514 14.1479 71.0538 14.2984 71.3778 14.6064C71.7018 14.9144 71.8637 15.3429 71.8637 15.8919V16.5944L70.3184 16.6319C68.5165 16.66 67.2034 16.963 66.379 17.5408C65.5547 18.1186 65.1425 18.9769 65.1425 20.1156C65.1425 20.7696 65.2917 21.326 65.59 21.7847C65.8883 22.2435 66.2982 22.594 66.8197 22.8364ZM70.277 21.383C69.984 21.4918 69.6863 21.5463 69.384 21.5463C68.8351 21.5463 68.3782 21.3988 68.0133 21.1038C67.6484 20.8088 67.4659 20.3992 67.4659 19.875C67.4659 19.4131 67.5964 19.0443 67.8573 18.7686C68.1183 18.4929 68.483 18.2909 68.9514 18.1627C69.4198 18.0344 69.9668 17.9656 70.5922 17.9563L71.8637 17.9375V19.575C71.8602 19.8261 71.7867 20.0687 71.6433 20.3028C71.4998 20.537 71.3095 20.7484 71.0723 20.9369C70.8351 21.1254 70.57 21.2741 70.277 21.383Z" fill="#252631"/>
<path d="M80.6687 23.2C79.9487 23.2 79.2674 23.0845 78.6248 22.8535C77.9822 22.6224 77.4425 22.2603 77.0058 21.7672C76.569 21.2741 76.2929 20.6375 76.1775 19.8575H78.3197C78.4095 20.2409 78.573 20.5524 78.8101 20.7921C79.0473 21.0317 79.3285 21.2069 79.6536 21.3177C79.9787 21.4284 80.3135 21.4838 80.6581 21.4838C81.2789 21.4838 81.7797 21.3759 82.1605 21.16C82.5412 20.9442 82.7316 20.6142 82.7316 20.17C82.7316 19.8423 82.6259 19.5813 82.4147 19.3869C82.2034 19.1925 81.8629 19.0464 81.3931 18.9485L79.4272 18.5022C78.5499 18.3066 77.847 17.9853 77.3184 17.5385C76.7899 17.0916 76.5221 16.4611 76.515 15.6469C76.5114 15.035 76.6663 14.4894 76.9797 14.01C77.293 13.5306 77.7592 13.1525 78.3781 12.8755C78.9971 12.5985 79.7614 12.46 80.6712 12.46C81.8783 12.46 82.846 12.7276 83.5742 13.2628C84.3024 13.798 84.6775 14.5642 84.6994 15.5613H82.6262C82.556 15.1167 82.3473 14.7694 82.0001 14.5194C81.653 14.2694 81.2011 14.1444 80.6447 14.1444C80.0722 14.1444 79.6023 14.254 79.2351 14.4731C78.868 14.6923 78.6844 15.0269 78.6844 15.4769C78.6844 15.7913 78.8239 16.0394 79.103 16.2213C79.382 16.4031 79.8045 16.5564 80.3703 16.681L82.23 17.1272C82.7623 17.2622 83.1983 17.4429 83.538 17.6694C83.8776 17.8959 84.1433 18.1448 84.335 18.4161C84.5267 18.6875 84.6609 18.9647 84.7378 19.2477C84.8147 19.5307 84.8531 19.7929 84.8531 20.0344C84.8531 20.6994 84.6815 21.2672 84.3383 21.7377C83.995 22.2082 83.5106 22.5696 82.885 22.8217C82.2594 23.0739 81.5206 23.2 80.6687 23.2Z" fill="#252631"/>
<path d="M87.0522 23V8.14001H89.4797V17.3494L93.7634 12.66H96.4412L92.6987 16.6963L96.63 23H94.1531L91.1584 18.2063L89.4797 19.9675V23H87.0522Z" fill="#252631"/>
</svg>
